<svg width="221" height="90" viewBox="0 0 221 90" fill="none" xmlns="http://www.w3.org/2000/svg">
<path d="M220.999 64.8125V89.0965H216.565L206 73.8123H205.822V89.0965H200.688V64.8125H205.193L215.675 80.0849H215.889V64.8125H220.999Z" fill="#333333"/>
<path d="M191.393 72.6621C191.227 72.085 190.993 71.5752 190.693 71.1325C190.393 70.6819 190.025 70.3025 189.59 69.9942C189.163 69.678 188.673 69.4369 188.12 69.2709C187.574 69.1049 186.97 69.0219 186.306 69.0219C185.065 69.0219 183.974 69.3302 183.033 69.9468C182.1 70.5633 181.373 71.4606 180.851 72.6384C180.33 73.8083 180.069 75.2391 180.069 76.9308C180.069 78.6224 180.326 80.0611 180.839 81.2469C181.353 82.4326 182.081 83.3378 183.021 83.9622C183.962 84.5788 185.073 84.8871 186.353 84.8871C187.515 84.8871 188.507 84.6816 189.329 84.2705C190.159 83.8516 190.792 83.2627 191.227 82.5038C191.669 81.7449 191.891 80.8477 191.891 79.8121L192.934 79.9663H186.673V76.1008H196.835V79.16C196.835 81.2943 196.385 83.1283 195.483 84.6618C194.582 86.1875 193.341 87.3653 191.76 88.1954C190.179 89.0175 188.369 89.4285 186.329 89.4285C184.053 89.4285 182.053 88.9266 180.33 87.9226C178.606 86.9108 177.262 85.476 176.298 83.6184C175.342 81.7528 174.863 79.5394 174.863 76.9782C174.863 75.0099 175.148 73.255 175.717 71.7135C176.294 70.1641 177.1 68.8519 178.136 67.7768C179.171 66.7018 180.377 65.8836 181.752 65.3224C183.128 64.7611 184.618 64.4805 186.223 64.4805C187.598 64.4805 188.879 64.682 190.065 65.0852C191.25 65.4804 192.302 66.0417 193.219 66.769C194.143 67.4962 194.898 68.3618 195.483 69.3657C196.068 70.3618 196.444 71.4606 196.61 72.6621H191.393Z" fill="#333333"/>
<path d="M171.06 64.8125V89.0965H165.926V64.8125H171.06Z" fill="#333333"/>
<path d="M157.218 71.7965C157.123 70.84 156.716 70.0969 155.997 69.5673C155.277 69.0377 154.301 68.7729 153.068 68.7729C152.23 68.7729 151.522 68.8914 150.945 69.1286C150.368 69.3578 149.926 69.678 149.617 70.089C149.317 70.5001 149.167 70.9665 149.167 71.4882C149.151 71.923 149.242 72.3024 149.439 72.6265C149.645 72.9506 149.926 73.2313 150.281 73.4684C150.637 73.6977 151.048 73.8992 151.514 74.0731C151.981 74.2391 152.479 74.3814 153.009 74.5L155.19 75.0217C156.25 75.2589 157.222 75.5751 158.107 75.9703C158.993 76.3656 159.759 76.8517 160.408 77.4288C161.056 78.0059 161.558 78.6857 161.913 79.4683C162.277 80.2509 162.463 81.1481 162.471 82.1599C162.463 83.646 162.083 84.9346 161.332 86.0254C160.589 87.1084 159.514 87.9503 158.107 88.5511C156.708 89.1439 155.02 89.4404 153.044 89.4404C151.084 89.4404 149.376 89.14 147.922 88.5392C146.475 87.9384 145.345 87.0491 144.53 85.8713C143.724 84.6855 143.301 83.2192 143.262 81.4722H148.23C148.285 82.2864 148.519 82.9662 148.93 83.5117C149.349 84.0492 149.906 84.4563 150.601 84.733C151.305 85.0018 152.099 85.1361 152.985 85.1361C153.854 85.1361 154.609 85.0097 155.25 84.7567C155.898 84.5037 156.4 84.152 156.755 83.7014C157.111 83.2508 157.289 82.733 157.289 82.1481C157.289 81.6026 157.127 81.1441 156.803 80.7726C156.487 80.4011 156.02 80.0849 155.404 79.824C154.795 79.5631 154.048 79.326 153.163 79.1126L150.518 78.4485C148.471 77.9505 146.855 77.1719 145.669 76.1126C144.483 75.0534 143.894 73.6265 143.902 71.8321C143.894 70.3618 144.285 69.0772 145.076 67.9784C145.874 66.8796 146.969 66.0219 148.36 65.4054C149.752 64.7888 151.333 64.4805 153.103 64.4805C154.906 64.4805 156.479 64.7888 157.823 65.4054C159.174 66.0219 160.226 66.8796 160.977 67.9784C161.728 69.0772 162.115 70.3499 162.139 71.7965H157.218Z" fill="#333333"/>
<path d="M123.602 89.0965V64.8125H139.965V69.0456H128.736V74.832H139.123V79.0651H128.736V84.8634H140.012V89.0965H123.602Z" fill="#333333"/>
<path d="M107.917 89.0965H99.3086V64.8125H107.988C110.431 64.8125 112.534 65.2987 114.296 66.271C116.059 67.2354 117.415 68.6227 118.364 70.4329C119.32 72.2432 119.798 74.4091 119.798 76.9308C119.798 79.4604 119.32 81.6343 118.364 83.4524C117.415 85.2705 116.051 86.6658 114.273 87.6381C112.502 88.6104 110.383 89.0965 107.917 89.0965ZM104.443 84.6974H107.704C109.221 84.6974 110.498 84.4287 111.534 83.8911C112.577 83.3457 113.36 82.5038 113.881 81.3655C114.411 80.2193 114.676 78.741 114.676 76.9308C114.676 75.1364 114.411 73.67 113.881 72.5317C113.36 71.3934 112.581 70.5555 111.545 70.0179C110.51 69.4804 109.233 69.2116 107.716 69.2116H104.443V84.6974Z" fill="#333333"/>
<path d="M183.707 32.4648H189.458L194.995 42.9231H195.232L200.77 32.4648H206.521L197.663 48.1641V56.7489H192.565V48.1641L183.707 32.4648Z" fill="#333333"/>
<path d="M169.285 56.7489V32.4648H174.419V52.5158H184.83V56.7489H169.285Z" fill="#333333"/>
<path d="M150.34 56.7489V32.4648H155.474V52.5158H165.885V56.7489H150.34Z" fill="#333333"/>
<path d="M146.539 44.6068C146.539 47.255 146.037 49.5079 145.034 51.3656C144.038 53.2232 142.678 54.6422 140.955 55.6224C139.239 56.5947 137.31 57.0809 135.168 57.0809C133.01 57.0809 131.073 56.5908 129.358 55.6106C127.643 54.6303 126.287 53.2114 125.291 51.3537C124.295 49.4961 123.797 47.2471 123.797 44.6068C123.797 41.9587 124.295 39.7058 125.291 37.8481C126.287 35.9904 127.643 34.5754 129.358 33.6031C131.073 32.6229 133.01 32.1328 135.168 32.1328C137.31 32.1328 139.239 32.6229 140.955 33.6031C142.678 34.5754 144.038 35.9904 145.034 37.8481C146.037 39.7058 146.539 41.9587 146.539 44.6068ZM141.334 44.6068C141.334 42.8915 141.077 41.4449 140.563 40.267C140.057 39.0892 139.342 38.1959 138.417 37.5872C137.492 36.9786 136.409 36.6742 135.168 36.6742C133.927 36.6742 132.844 36.9786 131.919 37.5872C130.994 38.1959 130.275 39.0892 129.761 40.267C129.255 41.4449 129.002 42.8915 129.002 44.6068C129.002 46.3222 129.255 47.7688 129.761 48.9467C130.275 50.1245 130.994 51.0178 131.919 51.6264C132.844 52.2351 133.927 52.5395 135.168 52.5395C136.409 52.5395 137.492 52.2351 138.417 51.6264C139.342 51.0178 140.057 50.1245 140.563 48.9467C141.077 47.7688 141.334 46.3222 141.334 44.6068Z" fill="#333333"/>
<path d="M99.3086 56.7489V32.4648H104.443V42.4844H114.866V32.4648H119.988V56.7489H114.866V46.7175H104.443V56.7489H99.3086Z" fill="#333333"/>
<path d="M187.12 24.4012H178.512V0.117188H187.191C189.634 0.117188 191.737 0.603343 193.5 1.57565C195.262 2.54006 196.618 3.92738 197.567 5.73761C198.523 7.54785 199.001 9.71381 199.001 12.2355C199.001 14.7651 198.523 16.9389 197.567 18.7571C196.618 20.5752 195.254 21.9705 193.476 22.9428C191.705 23.9151 189.587 24.4012 187.12 24.4012ZM183.646 20.0021H186.907C188.425 20.0021 189.701 19.7333 190.737 19.1958C191.78 18.6504 192.563 17.8085 193.085 16.6702C193.614 15.524 193.879 14.0457 193.879 12.2355C193.879 10.4411 193.614 8.9747 193.085 7.83638C192.563 6.69807 191.784 5.86014 190.749 5.3226C189.713 4.78507 188.436 4.5163 186.919 4.5163H183.646V20.0021Z" fill="#333333"/>
<path d="M174.291 0.117188V24.4012H169.156V0.117188H174.291Z" fill="#333333"/>
<path d="M148.567 0.117188L154.436 18.5674H154.661L160.543 0.117188H166.234L157.863 24.4012H151.246L142.863 0.117188H148.567Z" fill="#333333"/>
<path d="M126.424 24.4012H120.922L129.305 0.117188H135.922L144.293 24.4012H138.791L132.708 5.66647H132.518L126.424 24.4012ZM126.08 14.856H139.076V18.8638H126.08V14.856Z" fill="#333333"/>
<path d="M107.917 24.4012H99.3086V0.117188H107.988C110.431 0.117188 112.534 0.603343 114.296 1.57565C116.059 2.54006 117.415 3.92738 118.364 5.73761C119.32 7.54785 119.798 9.71381 119.798 12.2355C119.798 14.7651 119.32 16.9389 118.364 18.7571C117.415 20.5752 116.051 21.9705 114.273 22.9428C112.502 23.9151 110.383 24.4012 107.917 24.4012ZM104.443 20.0021H107.704C109.221 20.0021 110.498 19.7333 111.534 19.1958C112.577 18.6504 113.36 17.8085 113.881 16.6702C114.411 15.524 114.676 14.0457 114.676 12.2355C114.676 10.4411 114.411 8.9747 113.881 7.83638C113.36 6.69807 112.581 5.86014 111.545 5.3226C110.51 4.78507 109.233 4.5163 107.716 4.5163H104.443V20.0021Z" fill="#333333"/>
<path fill-rule="evenodd" clip-rule="evenodd" d="M89 0H0V44.5937V89H89V44.5937V0ZM89 44.5937L82.2561 47.5544L82.2589 47.5607L58.8764 57.8249L58.8741 57.8197L52.8713 60.4551V47.0938H36.1289V41.9501H52.8713V28.7323L89 44.5937ZM0 44.5937L6.67364 47.5236L6.65748 47.5604L30.04 57.8245L30.0556 57.7888L36.1287 60.4551L36.1287 28.7323L0 44.5937ZM75.9261 44.6006L58.1654 52.397V36.8041L75.9261 44.6006ZM30.8114 52.419V36.8261L13.0507 44.6225L30.8114 52.419Z" fill="#333333"/>
</svg>
