<svg width="2556" height="673" viewBox="0 0 2556 673" fill="none" xmlns="http://www.w3.org/2000/svg">
<path d="M1859.38 98L1831.78 278.682L2014 265.944C2011.1 224.551 1994.21 185.377 1966.11 154.858C1938.01 124.338 1900.38 104.288 1859.38 98Z" fill="url(#paint0_linear_4358_6856)"/>
<path d="M1796.88 309.022L1824.48 128.34C1815.36 126.883 1806.13 126.116 1796.89 126.043C1695.86 126.043 1614 207.971 1614 309.022C1614 410.09 1695.88 492 1796.88 492C1897.87 492 1979.75 410.073 1979.75 309.022C1979.75 304.731 1979.42 300.524 1979.11 296.283L1796.88 309.022Z" fill="black"/>
<path d="M174.079 502.685C141.465 502.685 112.24 497.389 86.404 486.797C60.5675 476.205 39.8136 460.529 24.1423 439.77C8.89453 419.01 0.847098 394.013 0 364.78H115.629C117.323 381.303 123.041 394.013 132.783 402.91C142.524 411.384 155.231 415.62 170.902 415.62C186.997 415.62 199.703 412.019 209.021 404.817C218.339 397.191 222.998 386.811 222.998 373.677C222.998 362.662 219.187 353.553 211.563 346.35C204.362 339.148 195.256 333.217 184.244 328.556C173.655 323.896 158.407 318.6 138.5 312.669C109.699 303.771 86.1922 294.874 67.9796 285.977C49.767 277.08 34.0957 263.946 20.9657 246.576C7.83565 229.206 1.27065 206.539 1.27065 178.577C1.27065 137.057 16.3066 104.647 46.3786 81.3447C76.4506 57.6191 115.629 45.7564 163.913 45.7564C213.045 45.7564 252.647 57.6191 282.719 81.3447C312.791 104.647 328.886 137.269 331.003 179.212H213.469C212.622 164.808 207.327 153.58 197.586 145.531C187.844 137.057 175.349 132.821 160.101 132.821C146.971 132.821 136.383 136.422 128.335 143.624C120.288 150.403 116.264 160.359 116.264 173.493C116.264 187.898 123.041 199.125 136.594 207.175C150.148 215.224 171.326 223.91 200.127 233.23C228.928 242.975 252.223 252.296 270.012 261.193C288.225 270.09 303.896 283.012 317.026 299.958C330.156 316.905 336.721 338.724 336.721 365.415C336.721 390.836 330.156 413.926 317.026 434.686C304.32 455.445 285.684 471.969 261.118 484.255C236.552 496.541 207.539 502.685 174.079 502.685Z" fill="black"/>
<path d="M737.759 315.211C737.759 325.379 737.124 335.97 735.853 346.986H489.983C491.677 369.017 498.666 385.964 510.949 397.826C523.655 409.265 539.115 414.985 557.327 414.985C584.435 414.985 603.283 403.546 613.871 380.668H729.5C723.57 403.969 712.77 424.941 697.099 443.583C681.851 462.224 662.579 476.841 639.284 487.432C615.989 498.024 589.941 503.32 561.139 503.32C526.408 503.32 495.489 495.906 468.382 481.077C441.275 466.249 420.098 445.065 404.85 417.527C389.602 389.988 381.978 357.789 381.978 320.93C381.978 284.071 389.39 251.872 404.215 224.333C419.462 196.795 440.64 175.611 467.747 160.783C494.854 145.954 525.985 138.54 561.139 138.54C595.447 138.54 625.942 145.743 652.626 160.147C679.309 174.552 700.063 195.1 714.888 221.791C730.135 248.483 737.759 279.622 737.759 315.211ZM626.578 286.613C626.578 267.971 620.224 253.143 607.518 242.127C594.812 231.112 578.928 225.604 559.869 225.604C541.656 225.604 526.197 230.9 513.49 241.492C501.207 252.084 493.583 267.124 490.618 286.613H626.578Z" fill="black"/>
<path d="M929.761 138.54C954.75 138.54 976.563 143.624 995.199 153.792C1014.26 163.96 1028.87 177.306 1039.04 193.829V143.624H1147.68V497.601C1147.68 530.223 1141.11 559.668 1127.98 585.936C1115.28 612.627 1095.58 633.81 1068.9 649.486C1042.64 665.162 1009.81 673 970.422 673C917.902 673 875.335 660.502 842.722 635.505C810.108 610.932 791.472 577.462 786.813 535.095H894.183C897.571 548.653 905.619 559.245 918.325 566.871C931.032 574.92 946.703 578.945 965.339 578.945C987.787 578.945 1005.58 572.378 1018.71 559.245C1032.26 546.534 1039.04 525.986 1039.04 497.601V447.396C1028.45 463.919 1013.84 477.476 995.199 488.068C976.563 498.236 954.75 503.32 929.761 503.32C900.536 503.32 874.064 495.906 850.346 481.077C826.627 465.825 807.779 444.43 793.802 416.891C780.248 388.929 773.471 356.73 773.471 320.295C773.471 283.859 780.248 251.872 793.802 224.333C807.779 196.795 826.627 175.611 850.346 160.783C874.064 145.954 900.536 138.54 929.761 138.54ZM1039.04 320.93C1039.04 293.815 1031.41 272.42 1016.16 256.744C1001.34 241.068 983.128 233.23 961.527 233.23C939.926 233.23 921.502 241.068 906.254 256.744C891.43 271.996 884.018 293.18 884.018 320.295C884.018 347.41 891.43 369.017 906.254 385.116C921.502 400.792 939.926 408.63 961.527 408.63C983.128 408.63 1001.34 400.792 1016.16 385.116C1031.41 369.44 1039.04 348.045 1039.04 320.93Z" fill="black"/>
<path d="M1404.16 233.866H1345.71V498.236H1237.07V233.866H1197.68V143.624H1237.07V133.456C1237.07 89.8181 1249.57 56.7718 1274.56 34.3173C1299.55 11.4391 1336.18 0 1384.47 0C1392.52 0 1398.45 0.211832 1402.26 0.635497V92.7838C1381.5 91.5128 1366.89 94.4784 1358.42 101.681C1349.95 108.883 1345.71 121.805 1345.71 140.447V143.624H1404.16V233.866Z" fill="black"/>
<path d="M1563.85 27.9622V498.236H1455.21V27.9622H1563.85Z" fill="black"/>
<path d="M2556 143.624L2460.07 498.236H2339.99L2284.08 268.183L2226.27 498.236H2106.83L2010.26 143.624H2118.9L2169.09 397.191L2228.81 143.624H2343.8L2404.16 395.92L2453.71 143.624H2556Z" fill="black"/>
<defs>
<linearGradient id="paint0_linear_4358_6856" x1="1278" y1="0" x2="1278" y2="673" gradientUnits="userSpaceOnUse">
<stop stop-color="#E9983E"/>
<stop offset="1" stop-color="#FF9825"/>
</linearGradient>
</defs>
</svg>
